<svg width="22" height="22" viewBox="0 0 22 22" fill="none" xmlns="http://www.w3.org/2000/svg">
<path d="M19.1959 7.50657C19.7277 8.03205 19.9565 8.6937 20.0634 9.47951C20.1664 10.2364 20.1664 11.1987 20.1663 12.3927V12.4885C20.1664 13.6824 20.1664 14.6448 20.0634 15.4017C19.9565 16.1875 19.7277 16.8491 19.1959 17.3746C18.6641 17.9001 17.9945 18.1261 17.1993 18.2318C16.4333 18.3335 15.4594 18.3335 14.2511 18.3335H9.73651C8.52822 18.3335 7.5543 18.3335 6.78832 18.2318C5.99306 18.1261 5.32346 17.9001 4.79166 17.3746C4.46903 17.0558 4.25792 16.6869 4.1179 16.2706C4.91673 16.3694 5.90502 16.3694 7.04688 16.3693H11.6389C12.8138 16.3694 13.8261 16.3694 14.6367 16.2617C15.5054 16.1463 16.3382 15.8861 17.0136 15.2186C17.6891 14.5512 17.9524 13.7284 18.0692 12.87C18.1782 12.069 18.1782 11.0687 18.1781 9.90786V9.73544C18.1782 8.60685 18.1782 7.6301 18.0781 6.84064C18.4996 6.979 18.8732 7.18764 19.1959 7.50657Z" fill="#FFA500"/>
<path d="M9.34292 8.29384C8.489 8.29384 7.79676 8.97786 7.79676 9.82163C7.79676 10.6654 8.489 11.3494 9.34292 11.3494C10.1968 11.3494 10.8891 10.6654 10.8891 9.82163C10.8891 8.97786 10.1968 8.29384 9.34292 8.29384Z" fill="#FFA500"/>
<path fill-rule="evenodd" clip-rule="evenodd" d="M2.60934 5.3506C1.83301 6.11771 1.83301 7.35235 1.83301 9.82163C1.83301 12.2909 1.83301 13.5256 2.60934 14.2927C3.38567 15.0598 4.63515 15.0598 7.13412 15.0598H11.5517C14.0507 15.0598 15.3002 15.0598 16.0765 14.2927C16.8528 13.5256 16.8528 12.2909 16.8528 9.82163C16.8528 7.35235 16.8528 6.11771 16.0765 5.3506C15.3002 4.5835 14.0507 4.5835 11.5517 4.5835H7.13412C4.63515 4.5835 3.38567 4.5835 2.60934 5.3506ZM6.47148 9.82163C6.47148 8.25462 7.75707 6.98431 9.34292 6.98431C10.9288 6.98431 12.2144 8.25462 12.2144 9.82163C12.2144 11.3886 10.9288 12.659 9.34292 12.659C7.75707 12.659 6.47148 11.3886 6.47148 9.82163ZM14.2023 12.2224C13.8363 12.2224 13.5396 11.9293 13.5396 11.5677V8.07559C13.5396 7.71397 13.8363 7.42082 14.2023 7.42082C14.5682 7.42082 14.8649 7.71397 14.8649 8.07559V11.5677C14.8649 11.9293 14.5682 12.2224 14.2023 12.2224ZM3.82092 11.5677C3.82092 11.9293 4.1176 12.2224 4.48356 12.2224C4.84953 12.2224 5.1462 11.9293 5.1462 11.5677V8.07559C5.1462 7.71397 4.84953 7.42082 4.48356 7.42082C4.1176 7.42082 3.82092 7.71397 3.82092 8.07559L3.82092 11.5677Z" fill="#FFA500"/>
</svg>
