<svg width="22" height="22" viewBox="0 0 22 22" fill="none" xmlns="http://www.w3.org/2000/svg">
<path d="M2.0506 2.09772C1.69039 1.97765 1.30104 2.17232 1.18097 2.53254C1.0609 2.89275 1.25558 3.28209 1.61579 3.40216L1.85862 3.48311C2.47866 3.68979 2.8886 3.82753 3.19059 3.96802C3.47656 4.10105 3.60019 4.20811 3.67941 4.31802C3.75863 4.42793 3.8211 4.57908 3.85687 4.89244C3.89466 5.22336 3.89569 5.65581 3.89569 6.30939L3.89569 8.75858C3.89567 10.0122 3.89566 11.0227 4.00251 11.8174C4.11344 12.6425 4.35076 13.3372 4.90251 13.889C5.45427 14.4407 6.14899 14.678 6.97409 14.789C7.76881 14.8958 8.77926 14.8958 10.0329 14.8958H16.4999C16.8796 14.8958 17.1874 14.588 17.1874 14.2083C17.1874 13.8286 16.8796 13.5208 16.4999 13.5208H10.0832C8.7674 13.5208 7.84971 13.5193 7.1573 13.4262C6.48468 13.3358 6.12849 13.1704 5.87479 12.9167C5.6592 12.7011 5.50737 12.4115 5.41112 11.9166H14.6867C15.5662 11.9166 16.0059 11.9166 16.3503 11.6895C16.6947 11.4624 16.8679 11.0582 17.2144 10.2499L17.6072 9.33322C18.3493 7.6018 18.7203 6.73609 18.3127 6.11802C17.9052 5.49994 16.9633 5.49994 15.0796 5.49994H5.26616C5.26075 5.2179 5.24891 4.96343 5.223 4.73647C5.17226 4.29205 5.06171 3.88426 4.79487 3.51404C4.52803 3.14383 4.17613 2.90999 3.77056 2.72132C3.38901 2.54382 2.9038 2.3821 2.32962 2.19073L2.0506 2.09772Z" fill="#FFA500"/>
<path d="M6.87467 16.5C7.63407 16.5 8.24967 17.1156 8.24967 17.875C8.24967 18.6344 7.63407 19.25 6.87467 19.25C6.11528 19.25 5.49967 18.6344 5.49967 17.875C5.49967 17.1156 6.11528 16.5 6.87467 16.5Z" fill="#FFA500"/>
<path d="M15.1247 16.5C15.8841 16.5 16.4997 17.1157 16.4997 17.875C16.4997 18.6344 15.8841 19.25 15.1247 19.25C14.3653 19.25 13.7497 18.6344 13.7497 17.875C13.7497 17.1157 14.3653 16.5 15.1247 16.5Z" fill="#FFA500"/>
</svg>
