<svg width="22" height="22" viewBox="0 0 22 22" fill="none" xmlns="http://www.w3.org/2000/svg">
<path d="M6.41699 4.42708C6.41699 5.84588 7.9991 7.34047 9.30425 8.33204C10.0368 8.88857 10.403 9.16683 11.0003 9.16683C11.5976 9.16683 11.9639 8.88857 12.6964 8.33205C14.0016 7.34049 15.5837 5.8459 15.5837 4.42706C15.5837 1.86941 13.0628 0.914504 11.0003 2.89027C8.9379 0.914504 6.41699 1.86941 6.41699 4.42708Z" fill="#FFA500"/>
<path d="M5.7386 19.606H5.50033C4.63608 19.606 4.20396 19.606 3.93548 19.3375C3.66699 19.069 3.66699 18.6369 3.66699 17.7727V16.7534C3.66699 16.2781 3.66699 16.0405 3.78907 15.8282C3.91115 15.616 4.09533 15.5089 4.46367 15.2946C6.88868 13.8842 10.3326 13.0903 12.6311 14.4612C12.7856 14.5534 12.9245 14.6645 13.0432 14.7979C13.5547 15.3725 13.5175 16.2398 12.9279 16.7544C12.8033 16.863 12.6706 16.9455 12.537 16.9741C12.6468 16.9614 12.7521 16.9468 12.8525 16.9308C13.688 16.7975 14.3893 16.3511 15.0313 15.8661L16.6879 14.6147C17.2719 14.1735 18.1387 14.1734 18.7228 14.6145C19.2487 15.0115 19.4095 15.6653 19.077 16.1982C18.6893 16.8196 18.1431 17.6146 17.6186 18.1004C17.0934 18.5869 16.3114 19.0212 15.673 19.3293C14.9659 19.6706 14.1846 19.8673 13.39 19.9959C11.7784 20.2568 10.0988 20.217 8.50363 19.8883C7.60181 19.7026 6.66522 19.606 5.7386 19.606Z" fill="#FFA500"/>
</svg>
